<svg xmlns="http://www.w3.org/2000/svg" width="46" height="32" viewBox="0 0 46 32">
  <g id="Group_3817" data-name="Group 3817" transform="translate(-975 -611)">
    <path id="Path_16694" data-name="Path 16694" d="M1082.46,517.28h-36.675a2.645,2.645,0,0,1-2.637-2.646V496.5a2.645,2.645,0,0,1,2.637-2.646h36.675a2.644,2.644,0,0,1,2.635,2.646v18.138A2.644,2.644,0,0,1,1082.46,517.28ZM1045.786,495.1a1.392,1.392,0,0,0-1.387,1.392v18.138a1.391,1.391,0,0,0,1.387,1.392h36.675a1.391,1.391,0,0,0,1.386-1.392V496.5a1.391,1.391,0,0,0-1.386-1.392Z" transform="translate(-68.149 117.15)" fill="#fff"/>
    <path id="Path_16695" data-name="Path 16695" d="M1077.227,501.1h-20.876a.642.642,0,0,1,0-1.253h20.876a.642.642,0,0,1,0,1.253Z" transform="translate(-56.728 116.915)" fill="#f8c92b"/>
    <path id="Path_16704" data-name="Path 16704" d="M1065.847,526.889h-11.57a.626.626,0,0,1-.594-.825l1.928-5.785a.626.626,0,1,1,1.188.4l-1.654,4.96h9.832l-1.653-4.96a.626.626,0,1,1,1.188-.4l1.928,5.785a.627.627,0,0,1-.594.825Z" transform="translate(-63.651 116.111)" fill="#f8c92b"/>
    <path id="Path_16705" data-name="Path 16705" d="M1075.758,514.1h-13.981a.627.627,0,1,1,0-1.254h13.981a.627.627,0,0,1,0,1.254Z" transform="translate(-63.918 116.406)" fill="#f8c92b"/>
    <line id="Line_1650" data-name="Line 1650" x2="2.893" transform="translate(990.038 629.883)" fill="none" stroke="#b92400" stroke-linecap="round" stroke-linejoin="round" stroke-width="1"/>
    <path id="Path_16706" data-name="Path 16706" d="M1062.258,514.1h-17.981a.627.627,0,1,1,0-1.254h17.981a.627.627,0,0,1,0,1.254Z" transform="translate(-68.165 116.406)" fill="#f8c92b"/>
    <path id="Path_16707" data-name="Path 16707" d="M1060.223,515.5a2.073,2.073,0,1,1,2.073-2.073A2.076,2.076,0,0,1,1060.223,515.5Zm0-2.893a.82.82,0,1,0,.819.82A.82.82,0,0,0,1060.223,512.6Z" transform="translate(-64.15 116.458)" fill="#f8c92b"/>
  </g>
</svg>
