<svg xmlns="http://www.w3.org/2000/svg" width="46" height="32" viewBox="0 0 46 32">
  <g id="Group_3717" data-name="Group 3717" transform="translate(-1122 -681)">
    <path id="Path_16708" data-name="Path 16708" d="M1078.081,601.35h-35.3a2.544,2.544,0,0,1-2.433-2.637V571.987a2.544,2.544,0,0,1,2.433-2.637h35.3a2.544,2.544,0,0,1,2.433,2.637v26.726A2.544,2.544,0,0,1,1078.081,601.35Zm-35.3-30.751a1.339,1.339,0,0,0-1.28,1.388v26.726a1.339,1.339,0,0,0,1.28,1.388h35.3a1.339,1.339,0,0,0,1.28-1.388V571.987a1.339,1.339,0,0,0-1.28-1.388Z" transform="translate(81.65 111.65)" fill="#fff"/>
    <circle id="Ellipse_968" data-name="Ellipse 968" cx="1.5" cy="1.5" r="1.5" transform="translate(1125.253 685.15)" fill="#fff"/>
    <circle id="Ellipse_969" data-name="Ellipse 969" cx="1.5" cy="1.5" r="1.5" transform="translate(1131.006 685.15)" fill="#f9ca2b"/>
    <path id="Path_16709" data-name="Path 16709" d="M1056.978,589.106a3.128,3.128,0,1,1,3.128-3.128A3.131,3.131,0,0,1,1056.978,589.106Zm0-5.142a2.014,2.014,0,1,0,2.014,2.014A2.016,2.016,0,0,0,1056.978,583.964Z" transform="translate(82.545 111.597)" fill="#fff"/>
    <path id="Path_16710" data-name="Path 16710" d="M1060.5,593.15a3.654,3.654,0,0,1-3.65-3.65.65.65,0,0,1,1.3,0,2.35,2.35,0,1,0,4.7,0v-5a3.654,3.654,0,0,1,3.65-3.65l18.937-.117a.65.65,0,0,1,0,1.3l-18.937.117a2.352,2.352,0,0,0-2.35,2.35v5A3.654,3.654,0,0,1,1060.5,593.15Z" transform="translate(81.913 110.938)" fill="#f8c92b"/>
    <g id="Group_3559" data-name="Group 3559" transform="translate(1137.14 692.719)">
      <path id="Path_16711" data-name="Path 16711" d="M1054.85,585.97v-3.789a.654.654,0,0,1,1.3,0v1.789" transform="translate(-1054.85 -581.6)" fill="#fff"/>
      <path id="Path_16712" data-name="Path 16712" d="M1058.85,584.97v-2.789a.654.654,0,0,1,1.3,0v3.789" transform="translate(-1054.991 -581.6)" fill="#fff"/>
    </g>
    <path id="Path_16713" data-name="Path 16713" d="M1056.131,579.15h-20.762a.667.667,0,0,1,0-1.3h20.762a.667.667,0,0,1,0,1.3Z" transform="translate(87.15 111.305)" fill="#f8c92b"/>
  </g>
</svg>
