<svg xmlns="http://www.w3.org/2000/svg" width="60.036" height="60" viewBox="0 0 60.036 60">
  <g id="Group_3661" data-name="Group 3661" transform="translate(163.183 -288.503)">
    <path id="Path_16402" data-name="Path 16402" d="M-104.463,299.993a4.463,4.463,0,0,0-3.177-1.316h-4.59l3.086-3.088a3.161,3.161,0,0,0-.034-4.433l-1.754-1.753a3.234,3.234,0,0,0-2.243-.9,3.232,3.232,0,0,0-2.235.89l-9.284,9.284h-30.168a3.22,3.22,0,0,0-3.216,3.216v9.57l-4.911,4.911a.66.66,0,0,0-.194.469.66.66,0,0,0,.194.47l4.911,4.91v12.853a3.22,3.22,0,0,0,3.216,3.217h12.853l10.016,10.016a.668.668,0,0,0,.469.194.668.668,0,0,0,.47-.194l7.292-7.293a.663.663,0,0,0,.195-.47.656.656,0,0,0-.195-.469l-1.785-1.784h13.414v6.994a.665.665,0,0,0,.664.664h3.829a4.464,4.464,0,0,0,3.177-1.317,4.462,4.462,0,0,0,1.316-3.178V303.169A4.459,4.459,0,0,0-104.463,299.993Zm-10-9.671a1.847,1.847,0,0,1,1.284-.516,1.856,1.856,0,0,1,1.294.525l1.766,1.764a1.833,1.833,0,0,1,0,2.589l-3.06,3.06-4.354-4.354Zm-4.009,4.008,4.353,4.353-14.94,14.94-4.353-4.355Zm-11.816,19.94-5.656,1.889,1.886-5.659Zm-24.578,22.7a1.891,1.891,0,0,1-1.888-1.889V323.551l13.413,13.414Zm29.692,3.581-6.354,6.354-30.057-30.057,6.354-6.354,4.347,4.348-2.745,2.745.939.939,2.746-2.745,9.272,9.273-2.743,2.744.938.938,2.744-2.743,9.272,9.272-2.745,2.745.939.939,2.746-2.745Zm17.53,4.076H-110.8v-6.329h3.164a3.169,3.169,0,0,1,3.165,3.165A3.169,3.169,0,0,1-107.64,344.622Zm3.165-6.5-.92-.535a4.419,4.419,0,0,0-2.245-.625h-19.234l-27.883-27.884a.66.66,0,0,0-.47-.194.668.668,0,0,0-.478.2l-1.045,1.045v-8.242a1.89,1.89,0,0,1,1.888-1.888h28.84l-8.794,8.794a.659.659,0,0,0-.149.264l-.209.591-2.45,7.344a.655.655,0,0,0-.034.21.662.662,0,0,0,.194.47.664.664,0,0,0,.47.194h18.532v-1.328l-15.167-.008,4.777-1.358a.673.673,0,0,0,.267-.147l15.026-15.026h5.919a3.169,3.169,0,0,1,3.165,3.164Z" fill="#9da1a5"/>
    <rect id="Rectangle_5107" data-name="Rectangle 5107" width="1.328" height="1.328" transform="translate(-114.685 316.544)" fill="#9da1a5"/>
    <rect id="Rectangle_5108" data-name="Rectangle 5108" width="1.327" height="1.328" transform="translate(-109.58 316.544)" fill="#9da1a5"/>
  </g>
</svg>
