<svg xmlns="http://www.w3.org/2000/svg" width="50" height="49.999" viewBox="0 0 50 49.999">
  <g id="Group_3659" data-name="Group 3659" transform="translate(86.614 -223.868)">
    <path id="Path_16400" data-name="Path 16400" d="M-36.93,255.156a.5.5,0,0,0-.188-.036.512.512,0,0,0-.367.157l-4.2,4.412,0-23.72h.194l3.341-3.607a.5.5,0,0,0,.133-.362.509.509,0,0,0-.162-.352l-1.489-1.384,1.953-2.108a.5.5,0,0,0,.132-.36.5.5,0,0,0-.162-.351L-41.455,224a.5.5,0,0,0-.342-.135.5.5,0,0,0-.369.162l-6.107,6.595H-78v-.341a3.894,3.894,0,0,0-3.882-3.883h-.843a3.894,3.894,0,0,0-3.883,3.882v36.323a.5.5,0,0,0,.5.5h37.359l-5.626,5.907a.5.5,0,0,0-.138.36.5.5,0,0,0,.156.351.5.5,0,0,0,.347.14h16.895a.5.5,0,0,0,.5-.5v-17.74A.5.5,0,0,0-36.93,255.156Zm-2.3-23.119-2.456,2.657v-2.248L-40.347,231Zm-2.547-6.957,2.98,2.757-1.611,1.744-2.981-2.76Zm-2.3,2.48,2.982,2.758-9.07,9.8-2.982-2.759ZM-51.123,240.6l-3.067.895.655-3.129Zm-27.889,25.5h-6.6v-.341a2.879,2.879,0,0,1,2.876-2.876h.844a2.879,2.879,0,0,1,2.876,2.876Zm0-3-.549-.422a3.852,3.852,0,0,0-2.327-.8h-.842a3.858,3.858,0,0,0-2.328.8l-.549.422V230.283a2.879,2.879,0,0,1,2.876-2.876h.844a2.879,2.879,0,0,1,2.876,2.876Zm1.007,3v-34.47h28.8l-5.009,5.412a.733.733,0,0,0-.124.239l-1.008,4.821a.5.5,0,0,0,.072.378.552.552,0,0,0,.422.229.468.468,0,0,0,.139-.021l4.707-1.37.108-.049a.491.491,0,0,0,.142-.1l7.067-7.637v27.21l-5.1,5.357Zm40.384,6.758H-52.837l15.216-15.976Z" transform="translate(0 0)" fill="#9da1a5"/>
    <path id="Path_16401" data-name="Path 16401" d="M-47.254,259.344h-6.254v-9.631a.522.522,0,0,0-.148-.359l-5.069-5.069a.5.5,0,0,0-.356-.146.5.5,0,0,0-.356.147l-5.067,5.066a.518.518,0,0,0-.148.359v9.632h-6.254a.5.5,0,0,0-.5.5.5.5,0,0,0,.5.5h23.653a.5.5,0,0,0,.5-.5A.5.5,0,0,0-47.254,259.344Zm-11.826-13.99,3.852,3.854h-7.706Zm4.564,13.99h-9.129v-9.129h9.129Z" transform="translate(-2.534 -3.379)" fill="#9da1a5"/>
    <rect id="Rectangle_5105" data-name="Rectangle 5105" width="1.008" height="1.007" transform="translate(-62.118 237.382)" fill="#9da1a5"/>
    <rect id="Rectangle_5106" data-name="Rectangle 5106" width="1.008" height="1.007" transform="translate(-62.118 259.344)" fill="#9da1a5"/>
  </g>
</svg>
