<svg xmlns="http://www.w3.org/2000/svg" width="45.999" height="32" viewBox="0 0 45.999 32">
  <g id="Group_3718" data-name="Group 3718" transform="translate(-1122.001 -743)">
    <path id="Path_16714" data-name="Path 16714" d="M1052.376,664.69a.528.528,0,0,1-.526-.526V639.707a1.974,1.974,0,0,1,1.978-1.966h27.993a1.974,1.974,0,0,1,1.978,1.966v11.509a5.6,5.6,0,0,1-5.366,5.8h-18.095l-7.592,7.52A.525.525,0,0,1,1052.376,664.69Zm1.452-25.9a.92.92,0,0,0-.926.913v23.2l6.849-6.786a.526.526,0,0,1,.37-.152h18.312a4.552,4.552,0,0,0,4.314-4.749V639.707a.92.92,0,0,0-.926-.913Z" transform="translate(79.972 110.31)" fill="#fff"/>
    <path id="Path_16715" data-name="Path 16715" d="M1040.376,649.776a.534.534,0,0,1-.2-.04.527.527,0,0,1-.325-.486V633.142a1.476,1.476,0,0,1,1.474-1.474h15a1.475,1.475,0,0,1,1.474,1.474v7.58a3.857,3.857,0,0,1-3.685,4h-8.467l-4.9,4.9A.529.529,0,0,1,1040.376,649.776Zm.948-17.055a.422.422,0,0,0-.422.421v14.838l4.156-4.156a.528.528,0,0,1,.372-.154h8.686a2.807,2.807,0,0,0,2.632-2.948v-7.58a.421.421,0,0,0-.421-.421Z" transform="translate(82.151 111.332)" fill="#f8c92b"/>
    <circle id="Ellipse_970" data-name="Ellipse 970" cx="1.448" cy="1.448" r="1.448" transform="translate(1134.655 750.805)" fill="#fff"/>
    <path id="Path_16716" data-name="Path 16716" d="M1080.848,654.2h-20.3a.543.543,0,0,1,0-1.052h20.3a.543.543,0,0,1,0,1.052Z" transform="translate(86.742 107.312)" fill="#f8c92b"/>
  </g>
</svg>
