<svg xmlns="http://www.w3.org/2000/svg" width="50" height="50" viewBox="0 0 50 50">
  <g id="Group_3663" data-name="Group 3663" transform="translate(104.129 -357.387)">
    <path id="Path_16398" data-name="Path 16398" d="M-57.39,367.164l-.016-1.224-2.978-7.445a1.752,1.752,0,0,0-1.635-1.108,1.751,1.751,0,0,0-1.635,1.108l-3,7.537v1.132H-90l-.026-.229a7.063,7.063,0,0,0-7.029-6.288,7.082,7.082,0,0,0-7.075,7.074v32.591a7.084,7.084,0,0,0,7.075,7.076h42.925V367.164Zm-5.228-8.258a.635.635,0,0,1,.6-.384.631.631,0,0,1,.6.385l2.652,6.628h-6.5Zm4.117,7.742v17.626h-2.96V366.648Zm-7.033,0h2.959v17.626h-2.959Zm0,18.74H-58.5v3.518a1.072,1.072,0,0,1-1.073,1.071h-4.888a1.072,1.072,0,0,1-1.073-1.071ZM-89.978,379.7l.286.033a7.58,7.58,0,0,1,6.747,7.541,7.576,7.576,0,0,1-6.747,7.54l-.286.033Zm-.413,22.968a7.023,7.023,0,0,0,.413-2.358v-4.351l.234-.021a8.763,8.763,0,0,0,7.913-8.664,8.761,8.761,0,0,0-7.913-8.664l-.234-.021v-7.053h2.144v3.56l.418.109a12.442,12.442,0,0,1,3.208,1.328l.373.221,2.517-2.518,3.822,3.822-2.517,2.516.219.372a12.444,12.444,0,0,1,1.328,3.209l.108.418H-74.8v5.4h-3.562l-.108.419a12.458,12.458,0,0,1-1.328,3.209l-.219.37,2.517,2.518-3.822,3.821-2.518-2.517-.372.221a12.455,12.455,0,0,1-3.208,1.328l-.418.107v3.561h-2.679Zm-12.623-34.949a5.967,5.967,0,0,1,5.96-5.96,5.968,5.968,0,0,1,5.962,5.96v28.721l-.458-.567a7.046,7.046,0,0,0-5.5-2.639,7.046,7.046,0,0,0-5.5,2.639l-.458.567Zm0,32.591a5.967,5.967,0,0,1,5.96-5.961,5.968,5.968,0,0,1,5.962,5.961,5.968,5.968,0,0,1-5.962,5.961A5.967,5.967,0,0,1-103.014,400.311Zm47.77,5.961H-93.185l.568-.458a7.1,7.1,0,0,0,1.443-1.572l.077-.114h4.378V400.31l.183-.055a13.6,13.6,0,0,0,2.353-.974l.168-.089,2.7,2.7,5.4-5.4-2.7-2.7.088-.167a13.72,13.72,0,0,0,.973-2.353l.056-.182h3.818V383.46H-77.5l-.056-.183a13.527,13.527,0,0,0-.973-2.353l-.089-.169,2.7-2.7-5.4-5.4-2.7,2.7-.168-.088a13.552,13.552,0,0,0-2.353-.974l-.182-.056v-3.818h-3.258v-2.144H-66.65v20.628a2.19,2.19,0,0,0,2.188,2.186h4.888a2.189,2.189,0,0,0,2.187-2.186V368.278h2.144Z" fill="#9da1a5"/>
    <path id="Path_16399" data-name="Path 16399" d="M-66.976,411.3H-51.2V400.4h-15.78Zm1.114-9.778H-52.31v8.663H-65.862Z" transform="translate(-6.192 -7.169)" fill="#9da1a5"/>
  </g>
</svg>
