<svg xmlns="http://www.w3.org/2000/svg" width="49.509" height="50" viewBox="0 0 49.509 50">
  <g id="Group_3662" data-name="Group 3662" transform="translate(-127.253 -145.442)">
    <path id="Path_16363" data-name="Path 16363" d="M192.013,179.445H163.984l5.334-5.333a.647.647,0,1,0-.915-.915l-6.436,6.436a.747.747,0,0,0-.115.162.557.557,0,0,0-.062.171.616.616,0,0,0,.005.27l.032.1.061.113a.614.614,0,0,0,.081.1l6.434,6.435a.646.646,0,1,0,.915-.914l-5.334-5.334h28.028a.647.647,0,0,0,0-1.293Z" transform="translate(-15.897 -9.65)" fill="#9da1a5"/>
    <path id="Path_16364" data-name="Path 16364" d="M163.137,174.162a.52.52,0,0,0-.5.535v15.91H144.2v-40.33h18.433v15.91a.5.5,0,1,0,1.007,0V149.743a.521.521,0,0,0-.5-.535H144.2v-3.231a.52.52,0,0,0-.5-.535.475.475,0,0,0-.2.047l-15.942,7.528a.538.538,0,0,0-.3.489v33.874a.537.537,0,0,0,.3.489l15.942,7.527a.465.465,0,0,0,.2.047.5.5,0,0,0,.46-.317.559.559,0,0,0,.043-.217v-3.231h18.936a.52.52,0,0,0,.5-.535V174.7A.521.521,0,0,0,163.137,174.162Zm-19.942,19.923-14.936-7.053V153.852l14.936-7.053Z" fill="#9da1a5"/>
    <path id="Path_16365" data-name="Path 16365" d="M131.224,198.351a.647.647,0,0,0,.646-.647V182.953a.646.646,0,1,0-1.293,0V197.7A.647.647,0,0,0,131.224,198.351Z" transform="translate(-0.532 -13.2)" fill="#9da1a5"/>
  </g>
</svg>
