<svg xmlns="http://www.w3.org/2000/svg" width="42" height="42" viewBox="0 0 42 42">
  <g id="Group_3818" data-name="Group 3818" transform="translate(-50 -381)">
    <g id="Group_3814" data-name="Group 3814">
      <g id="Rectangle_5631" data-name="Rectangle 5631" transform="translate(50 381)" fill="none" stroke="#333" stroke-width="1">
        <rect width="42" height="42" rx="21" stroke="none"/>
        <rect x="0.5" y="0.5" width="41" height="41" rx="20.5" fill="none"/>
      </g>
      <g id="path6733" transform="translate(60 393.317)">
        <path id="Path_16973" data-name="Path 16973" d="M49.384,430.933a.354.354,0,0,1-.145-.032.349.349,0,0,1-.2-.316v-2.432H47.995a1.739,1.739,0,0,1-1.737-1.737V412.987a1.739,1.739,0,0,1,1.737-1.737H62.816a.347.347,0,0,1,0,.695H47.995a1.044,1.044,0,0,0-1.042,1.042v13.431a1.044,1.044,0,0,0,1.042,1.042h1.389a.347.347,0,0,1,.347.347v2.023l2.668-2.287a.349.349,0,0,1,.226-.084H66.521a1.044,1.044,0,0,0,1.042-1.042v-1.853a.347.347,0,0,1,.695,0v1.853a1.739,1.739,0,0,1-1.737,1.737H52.755l-3.144,2.7A.345.345,0,0,1,49.384,430.933Z" transform="translate(-46.258 -411.25)" fill="#6a6b70"/>
      </g>
    </g>
    <g id="path6735" transform="translate(62.316 395.63)">
      <path id="Path_16974" data-name="Path 16974" d="M59.945,428.527H51.605a.347.347,0,0,1,0-.695h8.339a.347.347,0,0,1,0,.695Zm4.633-2.317H51.605a.347.347,0,1,1,0-.695H64.578a.347.347,0,0,1,0,.695Zm0-2.316H51.605a.347.347,0,1,1,0-.695H64.578a.347.347,0,0,1,0,.695Zm0-2.317H51.605a.347.347,0,1,1,0-.695H64.578a.347.347,0,0,1,0,.695Zm0-2.316H51.605a.347.347,0,0,1,0-.695H64.578a.347.347,0,0,1,0,.695Zm0-2.316H51.605a.347.347,0,1,1,0-.695H64.578a.347.347,0,0,1,0,.695Z" transform="translate(-51.258 -416.25)" fill="#f9ca2b"/>
    </g>
    <g id="path6751" transform="translate(77.599 391)">
      <path id="Path_16975" data-name="Path 16975" d="M86.459,422.234a.347.347,0,0,1-.31-.192l-1.85-3.7a.354.354,0,0,1-.04-.158h0V407.524a1.343,1.343,0,0,1,1.274-1.274h1.853a1.342,1.342,0,0,1,1.274,1.274V418.18h0a.332.332,0,0,1-.04.158l-1.849,3.7A.347.347,0,0,1,86.459,422.234Z" transform="translate(-84.258 -406.25)" fill="#6a6b70"/>
    </g>
  </g>
</svg>
