<svg xmlns="http://www.w3.org/2000/svg" width="46" height="32" viewBox="0 0 46 32">
  <g id="Group_3714" data-name="Group 3714" transform="translate(-1122 -495)">
    <path id="Path_16689" data-name="Path 16689" d="M1137.915,389.35h-37.949a2.629,2.629,0,0,1-2.616-2.637V359.987a2.629,2.629,0,0,1,2.616-2.637h37.949a2.629,2.629,0,0,1,2.616,2.637v26.726A2.629,2.629,0,0,1,1137.915,389.35ZM1099.966,358.6a1.384,1.384,0,0,0-1.376,1.388v26.726a1.384,1.384,0,0,0,1.376,1.388h37.949a1.384,1.384,0,0,0,1.376-1.388V359.987a1.384,1.384,0,0,0-1.376-1.388Z" transform="translate(24.65 137.65)" fill="#fff"/>
    <path id="Path_16690" data-name="Path 16690" d="M1102.5,364.15a1.65,1.65,0,1,1,1.65-1.65A1.651,1.651,0,0,1,1102.5,364.15Z" transform="translate(24.65 137.65)" fill="#f9ca2b"/>
    <path id="Path_16717" data-name="Path 16717" d="M1102.5,364.15a1.65,1.65,0,1,1,1.65-1.65A1.651,1.651,0,0,1,1102.5,364.15Z" transform="translate(30.65 137.65)" fill="#f9ca2b"/>
    <path id="Path_16693" data-name="Path 16693" d="M1144.908,368.65h-38a.657.657,0,0,1,0-1.3h38a.657.657,0,0,1,0,1.3Z" transform="translate(22.53 137.244)" fill="#f9ca2b"/>
    <path id="Path_16696" data-name="Path 16696" d="M1116,382.483a.649.649,0,0,1-.46-.19l-4-4a.649.649,0,0,1,0-.919l4-4a.65.65,0,0,1,.92.919l-3.541,3.54,3.541,3.541a.65.65,0,0,1-.46,1.109Z" transform="translate(24.045 136.792)" fill="#f9ca2b"/>
    <path id="Path_16697" data-name="Path 16697" d="M1124,382.483a.65.65,0,0,1-.46-1.109l3.541-3.541-3.541-3.54a.65.65,0,0,1,.92-.919l4,4a.649.649,0,0,1,0,.919l-4,4A.649.649,0,0,1,1124,382.483Z" transform="translate(23.526 136.792)" fill="#f9ca2b"/>
    <path id="Path_16698" data-name="Path 16698" d="M1119,384.983a.686.686,0,0,1-.1-.007.651.651,0,0,1-.544-.741l2-13a.65.65,0,0,1,1.286.2l-2,13A.651.651,0,0,1,1119,384.983Z" transform="translate(23.777 136.738)" fill="#f9ca2b"/>
  </g>
</svg>
