<svg xmlns="http://www.w3.org/2000/svg" width="20.708" height="22" viewBox="0 0 20.708 22">
  <g id="Group_3746" data-name="Group 3746" transform="translate(-440 -524)">
    <path id="Path_16543" data-name="Path 16543" d="M46.649,191.6v-1.687H33.111V191.6a2.8,2.8,0,0,0,2.773,2.8h12.13c-.117-.106-.229-.2-.335-.3A3.532,3.532,0,0,1,46.649,191.6Z" transform="translate(406.889 351.593)" fill="#f9ca2b"/>
    <path id="Path_16544" data-name="Path 16544" d="M42.7,181.372l1.965,1.349,1.972-1.349a2.5,2.5,0,0,0,.968-1.851v-2.787l-2.935-1.452-2.935,1.448v2.791A2.5,2.5,0,0,0,42.7,181.372Zm.443-2.634a.37.37,0,0,1,.523,0l.59.6,1.42-1.42a.371.371,0,1,1,.524.524l-1.683,1.684a.375.375,0,0,1-.262.11h0a.373.373,0,0,1-.262-.111l-.852-.861A.37.37,0,0,1,43.139,178.738Z" transform="translate(406.889 351.593)" fill="#f9ca2b"/>
    <path id="Path_16546" data-name="Path 16546" d="M38.794,172.407a1.855,1.855,0,0,0-1.866,1.839l-.109,14.925h10.2a.385.385,0,0,1,.37.388v2.04a2.8,2.8,0,0,0,2.782,2.808h.009a2.783,2.783,0,0,0,2.762-2.8V174.4a2.835,2.835,0,0,1,.877-2Zm2.2,4.092a.361.361,0,0,1,.2-.332l3.315-1.63a.366.366,0,0,1,.323,0l3.322,1.634a.36.36,0,0,1,.195.333v3.017a3.228,3.228,0,0,1-1.29,2.463l-2.175,1.491a.364.364,0,0,1-.207.064.359.359,0,0,1-.206-.064l-2.181-1.491a3.23,3.23,0,0,1-1.292-2.463Zm8.938,10.98H39.774a.37.37,0,0,1,0-.74H49.928a.37.37,0,0,1,0,.74Zm0-1.957H39.774a.37.37,0,0,1,0-.74H49.928a.37.37,0,0,1,0,.74Z" transform="translate(406.889 351.593)" fill="#6a6b70"/>
  </g>
</svg>
