<svg xmlns="http://www.w3.org/2000/svg" width="18.34" height="22" viewBox="0 0 18.34 22">
  <g id="Group_3745" data-name="Group 3745" transform="translate(-435.737 -641)">
    <g id="Group_3464" data-name="Group 3464" transform="translate(435.737 641)">
      <path id="Path_16499" data-name="Path 16499" d="M82.353,176.287a5.666,5.666,0,0,0-3.745,9.911,4.257,4.257,0,0,1,.794,2.828.337.337,0,0,0,.1.265.375.375,0,0,0,.244.1h5.189a.338.338,0,0,0,.244-.1.389.389,0,0,0,.1-.265,4.384,4.384,0,0,1,.793-2.828l.061-.061a5.649,5.649,0,0,0-3.785-9.85Z" transform="translate(-73.166 -171.545)" fill="#6a6b70"/>
      <path id="Path_16501" data-name="Path 16501" d="M84.133,187.326H79.614a.855.855,0,0,0,0,1.71h4.5a.877.877,0,0,0,.875-.854A.86.86,0,0,0,84.133,187.326Z" transform="translate(-72.707 -169.092)" fill="#6a6b70"/>
      <path id="Path_16502" data-name="Path 16502" d="M83.339,189.008H80.165a.855.855,0,1,0,0,1.71h3.174a.861.861,0,0,0,.856-.856A.848.848,0,0,0,83.339,189.008Z" transform="translate(-72.585 -168.718)" fill="#6a6b70"/>
      <path id="Path_16503" data-name="Path 16503" d="M81.37,175.459a.343.343,0,0,0,.347-.346v-2.36a.346.346,0,0,0-.693,0v2.36A.357.357,0,0,0,81.37,175.459Z" transform="translate(-72.204 -172.407)" fill="#f9ca2b"/>
      <path id="Path_16504" data-name="Path 16504" d="M86.355,173.851a.329.329,0,0,0-.468.081l-1.3,1.954a.335.335,0,0,0,.082.489.33.33,0,0,0,.183.06.324.324,0,0,0,.285-.163l1.3-1.953A.315.315,0,0,0,86.355,173.851Z" transform="translate(-71.429 -172.101)" fill="#f9ca2b"/>
      <path id="Path_16505" data-name="Path 16505" d="M78.222,176.374a.332.332,0,0,0,.183-.061.356.356,0,0,0,.1-.489l-1.261-1.974a.353.353,0,1,0-.59.387l1.261,1.974A.338.338,0,0,0,78.222,176.374Z" transform="translate(-73.187 -172.121)" fill="#f9ca2b"/>
      <path id="Path_16506" data-name="Path 16506" d="M76.38,177.862l-2.055-1.12a.357.357,0,0,0-.468.143.324.324,0,0,0,.142.468l2.056,1.118a.469.469,0,0,0,.163.042.336.336,0,0,0,.306-.183A.357.357,0,0,0,76.38,177.862Z" transform="translate(-73.807 -171.452)" fill="#f9ca2b"/>
      <path id="Path_16507" data-name="Path 16507" d="M89.279,176.886a.357.357,0,0,0-.468-.143l-2.077,1.12a.358.358,0,0,0-.142.468.336.336,0,0,0,.306.183.374.374,0,0,0,.163-.042l2.075-1.118A.359.359,0,0,0,89.279,176.886Z" transform="translate(-70.975 -171.452)" fill="#f9ca2b"/>
    </g>
    <path id="Path_16500" data-name="Path 16500" d="M81.37,177.469a.346.346,0,0,0,0,.692,3.7,3.7,0,0,1,3.7,3.7.346.346,0,1,0,.692,0A4.377,4.377,0,0,0,81.37,177.469Z" transform="translate(363.533 469.718)" fill="#f9ca2b"/>
  </g>
</svg>
