<svg xmlns="http://www.w3.org/2000/svg" width="50" height="50" viewBox="0 0 50 50">
  <g id="Group_3658" data-name="Group 3658" transform="translate(-219.883 -219.999)">
    <path id="Path_16366" data-name="Path 16366" d="M271.212,280a.529.529,0,0,0,.489.326h8.068a.53.53,0,0,0,.529-.53v-8.067a.528.528,0,0,0-.327-.489.5.5,0,0,0-.2-.04.531.531,0,0,0-.375.154l-8.067,8.069A.526.526,0,0,0,271.212,280Zm8.027-6.993v6.261h-6.26Z" transform="translate(-15.751 -15.564)" fill="#9da1a5"/>
    <path id="Path_16367" data-name="Path 16367" d="M269.555,243.7a.529.529,0,0,0-.579.115L266.4,246.4V230.77a.533.533,0,0,0-.531-.533h-6.192l4.412-4.425a2.061,2.061,0,0,0,0-2.9l-2.3-2.307a2.043,2.043,0,0,0-2.9,0l-9.606,9.637H226.025v-7.554a.532.532,0,0,0-.531-.533,5.627,5.627,0,0,0-5.611,5.629v31.533a.768.768,0,0,0,.017.144,5.413,5.413,0,0,0,1.613,3.465,5.355,5.355,0,0,0,3.766,1.537H248.4l-4.617,4.631a.533.533,0,0,0,.376.909h25.195a.533.533,0,0,0,.531-.533V244.19A.531.531,0,0,0,269.555,243.7Zm-9.907-22.344a.984.984,0,0,1,1.394,0l2.3,2.307a.991.991,0,0,1,0,1.4l-1.615,1.62-3.694-3.706Zm-2.365,2.372,3.694,3.706-1.654,1.66-3.694-3.706Zm11.539,29.016h-1.575a.533.533,0,0,0,0,1.065h1.575v2.658h-1.575a.532.532,0,0,0,0,1.065h1.575v2.657h-1.575a.532.532,0,0,0,0,1.065h1.575v2.658h-1.575a.532.532,0,0,0,0,1.065h1.575v3.961H245.438l7.833-7.858a.535.535,0,0,0,0-.753.573.573,0,0,0-.078-.063.529.529,0,0,0-.674.063l-3.06,3.07H225.28a4.322,4.322,0,0,1-4.332-4.221,3.913,3.913,0,0,1,.033-.414v-.051l.006-.012c.008-.058.017-.118.03-.192s.023-.121.048-.233l.038-.153.059-.2.068-.2c.019-.051.039-.1.078-.2.026-.063.054-.124.087-.193a4.59,4.59,0,0,1,3.184-2.492c.064-.014.129-.024.23-.041l.227-.029.227-.017c.076,0,.154-.006.23-.006a.533.533,0,0,0,.531-.533v-5.383a.531.531,0,1,0-1.061,0v4.873l-.183.023a5.544,5.544,0,0,0-3.2,1.556c-.092.09-.18.185-.266.281l-.365.408v-28.2a4.549,4.549,0,0,1,3.774-4.5l.244-.043v22.625a.531.531,0,1,0,1.062,0V231.3H248.23l-4.449,4.463a.534.534,0,0,0,0,.753.529.529,0,0,0,.75,0l10.347-10.381,3.693,3.706-15.617,15.668-3.694-3.706,3.09-3.1a.532.532,0,1,0-.751-.753l-3.5,3.522-.037.056-.047.1-2.425,6.89a.712.712,0,0,0-.021.084l-.033.17H232.9a.533.533,0,0,0,0,1.065h20.494a.533.533,0,0,0,0-1.065h-14.7l-.069-.408,4.5-1.592.064-.027.091-.053.051-.046,15.3-15.344h6.722V247.46l-10.647,10.681a.545.545,0,0,0,.042.79.525.525,0,0,0,.334.119.562.562,0,0,0,.376-.157l13.376-13.419Zm-26.837-6.7-2.558.906-1.6-1.6.9-2.566Z" transform="translate(0 0)" fill="#9da1a5"/>
  </g>
</svg>
