<svg xmlns="http://www.w3.org/2000/svg" width="45.998" height="32" viewBox="0 0 45.998 32">
  <g id="Group_3715" data-name="Group 3715" transform="translate(-1122 -557)">
    <path id="Path_16699" data-name="Path 16699" d="M1126.406,424.85h-17.812a2.7,2.7,0,0,1-2.744-2.637V395.487a2.7,2.7,0,0,1,2.744-2.637h17.812a2.7,2.7,0,0,1,2.744,2.637v26.726A2.7,2.7,0,0,1,1126.406,424.85ZM1108.594,394.1a1.419,1.419,0,0,0-1.444,1.388v26.726a1.419,1.419,0,0,0,1.444,1.388h17.812a1.419,1.419,0,0,0,1.444-1.388V395.487a1.419,1.419,0,0,0-1.444-1.388Z" transform="translate(16.151 164.15)" fill="#fff"/>
    <path id="Path_16700" data-name="Path 16700" d="M1146.959,423.15h-16.616a.675.675,0,0,1,0-1.3h16.616a1.308,1.308,0,0,0,1.1-1.444V407.594a1.308,1.308,0,0,0-1.1-1.444h-16.616a.675.675,0,0,1,0-1.3h16.616c1.148,0,2.081,1.231,2.081,2.744v12.812C1149.041,421.919,1148.107,423.15,1146.959,423.15Z" transform="translate(18.958 162.85)" fill="#fff"/>
    <path id="Path_16701" data-name="Path 16701" d="M1116,422.15a2.15,2.15,0,1,1,2.15-2.15A2.152,2.152,0,0,1,1116,422.15Zm0-3a.85.85,0,1,0,.85.85A.851.851,0,0,0,1116,419.15Z" transform="translate(18.15 162.85)" fill="#fff"/>
    <path id="Path_16702" data-name="Path 16702" d="M1111.98,401.15h-13.711c-.232,0-.419-.291-.419-.65s.188-.65.419-.65h13.711c.232,0,.419.291.419.65S1112.212,401.15,1111.98,401.15Z" transform="translate(24.151 163.866)" fill="#f9ca2b"/>
    <circle id="Ellipse_967" data-name="Ellipse 967" cx="0.5" cy="0.5" r="0.5" transform="translate(1163.849 571.54)" fill="#f9ca2b"/>
    <path id="Path_16703" data-name="Path 16703" d="M1148,422.65a.65.65,0,0,1-.65-.65V406a.65.65,0,0,1,1.3,0v16A.65.65,0,0,1,1148,422.65Z" transform="translate(12.849 162.85)" fill="#f9ca2b"/>
  </g>
</svg>
