<svg xmlns="http://www.w3.org/2000/svg" width="42" height="42" viewBox="0 0 42 42">
  <g id="Group_3813" data-name="Group 3813" transform="translate(-50 -443)">
    <g id="Group_3786" data-name="Group 3786" transform="translate(-458.5 -240.325)">
      <g id="Group_3467" data-name="Group 3467" transform="translate(518.5 713.102)">
        <g id="Group_3466" data-name="Group 3466" transform="translate(0)">
          <path id="Path_16524" data-name="Path 16524" d="M2.039,460.866a.649.649,0,0,0-.919,0l-.919.919a.65.65,0,0,0,.919.919l.919-.919A.649.649,0,0,0,2.039,460.866Z" transform="translate(0 -460.676)" fill="#f9ca2b"/>
        </g>
      </g>
      <g id="Group_3469" data-name="Group 3469" transform="translate(521.256 710.337)">
        <g id="Group_3468" data-name="Group 3468">
          <path id="Path_16525" data-name="Path 16525" d="M64.753,397.016l-.919.919a.65.65,0,0,0,.919.919l.919-.919A.65.65,0,0,0,64.753,397.016Z" transform="translate(-63.633 -396.817)" fill="#f9ca2b"/>
        </g>
      </g>
      <g id="Group_3471" data-name="Group 3471" transform="translate(519.241 693.325)">
        <g id="Group_3470" data-name="Group 3470">
          <path id="Path_16526" data-name="Path 16526" d="M17.581,5.477a.653.653,0,0,0-.24,1.128l5.97,4.96L37.491,0Z" transform="translate(-17.107)" fill="#6a6b70"/>
        </g>
      </g>
      <g id="Group_3473" data-name="Group 3473" transform="translate(528.954 694.289)">
        <g id="Group_3472" data-name="Group 3472">
          <path id="Path_16527" data-name="Path 16527" d="M245.4,36.351l4.96,5.969a.652.652,0,0,0,1.128-.24l5.458-19.84C256.775,22.375,245.533,36.184,245.4,36.351Z" transform="translate(-245.397 -22.24)" fill="#6a6b70"/>
        </g>
      </g>
      <g id="Group_3475" data-name="Group 3475" transform="translate(524.479 698.203)">
        <g id="Group_3474" data-name="Group 3474">
          <path id="Path_16528" data-name="Path 16528" d="M140.9,122.954l-.6,1.79a.65.65,0,0,0,.822.822l1.791-.6,8.515-10.53Z" transform="translate(-140.266 -114.438)" fill="#f9ca2b"/>
        </g>
      </g>
    </g>
    <g id="Rectangle_5633" data-name="Rectangle 5633" transform="translate(50 443)" fill="none" stroke="#333" stroke-width="1">
      <rect width="42" height="42" rx="21" stroke="none"/>
      <rect x="0.5" y="0.5" width="41" height="41" rx="20.5" fill="none"/>
    </g>
  </g>
</svg>
